# Blender v2.93.0 OBJ File: 'mountain.blend'
# www.blender.org
mtllib mountain.mtl
o obj1
v -14.685599 -1.053292 22.766075
v -15.798196 2.301793 25.993431
v -22.387239 3.410047 22.161526
v -7.400128 -1.053292 22.766075
v -7.305760 5.992186 26.454945
v 1.433826 -0.380756 22.511950
v 3.987605 3.639381 25.467300
v 8.059796 -0.580982 22.693005
v 7.745191 4.425617 25.387094
v 14.879287 1.584281 20.772303
v 14.662585 4.008295 24.579353
v 25.247795 4.047687 19.356239
v -22.085146 0.051430 16.552420
v -27.030432 5.316024 14.166753
v 8.140738 -1.220790 16.766279
v 14.447215 0.824814 16.040541
v 23.958345 -1.235629 16.109329
v 30.732433 4.895735 15.327800
v -14.618955 0.236797 9.284808
v -23.576458 0.517624 9.841479
v -26.790651 2.363158 8.497593
v 23.807047 -1.425568 9.080033
v 30.971363 3.611384 8.664668
v -15.709723 -3.108546 2.023753
v -22.877871 0.810361 2.668972
v -26.776365 3.741772 1.267033
v 23.842787 -1.727342 2.916716
v 30.435202 4.339798 1.303874
v -14.697193 -1.928508 -3.138247
v -23.468193 0.005709 -2.584688
v -25.944622 4.614074 -3.422699
v 23.958832 -1.263950 -2.174453
v 30.839846 2.772874 -2.493758
v -14.685599 -1.053292 -7.542994
v -22.487921 2.139669 -8.033603
v -26.142998 2.950132 -9.334556
v 23.958832 -1.263950 -7.542994
v 30.020983 3.417022 -8.460072
v -14.604447 -0.904818 -12.976473
v -6.490394 -1.285291 -14.153889
v -21.080709 4.032379 -11.803246
v 14.882178 -1.586240 -13.353746
v 23.462461 -0.463024 -12.650698
v 30.499664 3.192632 -13.050159
v -15.162424 1.796610 -20.403353
v -7.187684 0.148362 -22.181879
v -9.538068 6.696618 -27.830975
v -5.791463 3.189425 -29.108236
v -19.880318 4.407206 -22.356314
v -19.370066 5.268699 -30.314289
v -7.187684 0.148362 -22.181879
v 0.640729 0.059934 -21.797255
v -0.637380 4.095677 -27.993816
v 7.503162 0.721203 -22.417339
v 7.389709 2.805712 -27.627335
v 13.815571 0.298957 -21.850840
v 11.515141 5.897246 -27.594156
v 22.180080 4.351614 -20.838575
v 21.594688 4.163404 -28.216946
v 30.165468 4.248753 -21.375082
v 30.925827 4.075491 -27.334911
vt 1.145686 -3.585304
vt 0.465809 -3.585304
vt 1.145686 -3.988867
vt 1.814795 -3.585304
vt 1.814795 -3.988867
vt 2.607439 -3.585304
vt 2.607439 -3.988867
vt 3.236193 -3.988867
vt 3.236193 -3.585304
vt 3.815524 -3.585304
vt 3.815524 -3.988867
vt 4.436886 -3.585304
vt 0.465809 -2.973968
vt 0.000000 -2.973968
vt 3.815524 -2.973968
vt 3.236193 -2.973968
vt 4.436886 -2.973968
vt 4.988867 -2.973968
vt 0.465809 -2.332751
vt 1.145686 -2.332751
vt 0.000000 -2.332751
vt 4.988867 -2.332751
vt 4.436886 -2.332751
vt 1.145686 -1.768476
vt 0.465809 -1.768476
vt 0.000000 -1.768476
vt 4.988867 -1.768476
vt 4.436886 -1.768476
vt 1.145686 -1.294729
vt 0.465809 -1.294729
vt 0.000000 -1.294729
vt 4.988867 -1.294729
vt 4.436886 -1.294729
vt 1.145686 -0.801674
vt 0.465809 -0.801674
vt 0.000000 -0.801674
vt 4.988867 -0.801674
vt 4.436886 -0.801674
vt 0.465809 -0.329779
vt 1.145686 -0.329779
vt 4.988867 -0.329779
vt 4.436886 -0.329779
vt 1.814795 -0.329779
vt 1.814795 0.256861
vt 1.145686 0.256861
vt 1.814795 1.000000
vt 1.145686 1.000000
vt 0.465809 1.000000
vt 0.465809 0.256861
vt 2.607439 1.000000
vt 1.814795 0.256861
vt 2.607439 0.256861
vt 3.236193 0.256861
vt 3.236193 1.000000
vt 3.815524 1.000000
vt 3.815524 0.256861
vt 4.436886 0.256861
vt 3.815524 -0.329779
vt 4.436886 1.000000
vt 4.988867 0.256861
vt 4.988867 1.000000
vn 0.1653 0.9183 -0.3598
vn 0.0783 0.9823 0.1703
vn 0.1077 0.8414 -0.5296
vn -0.0453 0.8694 -0.4921
vn -0.0825 0.4848 -0.8707
vn -0.0228 0.8543 -0.5193
vn -0.0906 0.6418 -0.7615
vn -0.1441 0.5647 -0.8126
vn -0.1912 0.8078 -0.5577
vn -0.1841 0.8746 -0.4485
vn -0.0060 0.9545 -0.2980
vn -0.0298 0.9979 -0.0571
vn 0.4444 0.8842 -0.1439
vn 0.5791 0.8057 -0.1247
vn -0.0918 0.9822 -0.1638
vn -0.1271 0.9892 -0.0727
vn -0.2892 0.8829 -0.3699
vn -0.3768 0.9262 0.0104
vn 0.4259 0.9005 -0.0881
vn 0.0136 0.9934 -0.1139
vn 0.5381 0.8363 -0.1048
vn -0.6163 0.7862 -0.0447
vn -0.2442 0.9667 -0.0768
vn 0.1230 0.9922 -0.0226
vn 0.4785 0.8781 -0.0042
vn 0.6871 0.7225 0.0766
vn -0.6036 0.7926 -0.0866
vn -0.2691 0.9621 0.0434
vn 0.0603 0.9796 0.1918
vn 0.5473 0.8287 0.1171
vn 0.7607 0.6244 0.1777
vn -0.5065 0.8537 -0.1212
vn -0.2794 0.9600 0.0168
vn 0.1571 0.9727 0.1707
vn 0.3342 0.8802 0.3369
vn -0.0328 0.9912 -0.1281
vn -0.5858 0.8104 -0.0089
vn -0.2590 0.9644 0.0531
vn 0.1399 0.9772 0.1598
vn 0.3013 0.9448 0.1287
vn -0.5038 0.8608 0.0724
vn -0.2031 0.9183 0.3400
vn 0.2092 0.9745 0.0809
vn 0.3880 0.8643 0.3202
vn 0.2479 0.9074 0.3393
vn 0.5397 0.5773 0.6128
vn 0.2760 0.7058 0.6525
vn -0.2941 0.9361 0.1932
vn -0.0162 0.9963 0.0847
vn -0.0640 0.8834 0.4641
vn -0.2549 0.8730 0.4159
vn -0.1466 0.9396 0.3092
vn -0.0295 0.9463 0.3219
vn -0.0648 0.9370 0.3433
vn -0.2564 0.8802 0.3994
vn -0.0611 0.7738 0.6304
vn -0.2078 0.9039 0.3740
vn -0.1859 0.9569 0.2233
vn -0.3295 0.8539 0.4029
vn -0.0968 0.9803 0.1721
vn -0.0816 0.9843 0.1563
vn 0.0114 0.9996 -0.0271
usemtl mat1.001
s 1
f 1/1/1 3/2/2 2/3/3
f 4/4/4 1/1/1 2/3/3
f 5/5/5 4/4/4 2/3/3
f 6/6/6 4/4/4 5/5/5
f 7/7/7 6/6/6 5/5/5
f 9/8/8 8/9/9 6/6/6
f 7/7/7 9/8/8 6/6/6
f 10/10/10 8/9/9 9/8/8
f 11/11/11 10/10/10 9/8/8
f 12/12/12 10/10/10 11/11/11
f 13/13/13 3/2/2 1/1/1
f 13/13/13 14/14/14 3/2/2
f 10/10/10 16/15/15 15/16/16
f 8/9/9 10/10/10 15/16/16
f 17/17/17 16/15/15 10/10/10
f 12/12/12 17/17/17 10/10/10
f 18/18/18 17/17/17 12/12/12
f 20/19/19 13/13/13 19/20/20
f 14/14/14 13/13/13 20/19/19
f 21/21/21 14/14/14 20/19/19
f 18/18/18 23/22/22 22/23/23
f 17/17/17 18/18/18 22/23/23
f 20/19/19 19/20/20 24/24/24
f 25/25/25 20/19/19 24/24/24
f 21/21/21 20/19/19 25/25/25
f 26/26/26 21/21/21 25/25/25
f 23/22/22 28/27/27 27/28/28
f 22/23/23 23/22/22 27/28/28
f 25/25/25 24/24/24 29/29/29
f 30/30/30 25/25/25 29/29/29
f 26/26/26 25/25/25 30/30/30
f 31/31/31 26/26/26 30/30/30
f 28/27/27 33/32/32 32/33/33
f 27/28/28 28/27/27 32/33/33
f 30/30/30 29/29/29 34/34/34
f 35/35/35 30/30/30 34/34/34
f 31/31/31 30/30/30 35/35/35
f 36/36/36 31/31/31 35/35/35
f 38/37/37 37/38/38 32/33/33
f 33/32/32 38/37/37 32/33/33
f 41/39/39 35/35/35 34/34/34
f 39/40/40 41/39/39 34/34/34
f 36/36/36 35/35/35 41/39/39
f 44/41/41 43/42/42 37/38/38
f 38/37/37 44/41/41 37/38/38
f 40/43/43 46/44/44 45/45/45
f 39/40/40 40/43/43 45/45/45
f 48/46/46 47/47/47 45/45/45
f 46/44/44 48/46/46 45/45/45
f 50/48/48 49/49/49 45/45/45
f 47/47/47 50/48/48 45/45/45
f 49/49/49 41/39/39 39/40/40
f 45/45/45 49/49/49 39/40/40
f 53/50/50 48/46/51 51/51/52
f 52/52/53 53/50/50 51/51/52
f 54/53/54 55/54/55 53/50/50
f 52/52/53 54/53/54 53/50/50
f 57/55/56 55/54/55 54/53/54
f 56/56/57 57/55/56 54/53/54
f 58/57/58 56/56/57 42/58/59
f 43/42/42 58/57/58 42/58/59
f 59/59/60 57/55/56 56/56/57
f 58/57/58 59/59/60 56/56/57
f 60/60/61 58/57/58 43/42/42
f 44/41/41 60/60/61 43/42/42
f 61/61/62 59/59/60 58/57/58
f 60/60/61 61/61/62 58/57/58
